<?xml version="1.0" encoding="UTF-8" standalone="no"?>
<!-- Created with Inkscape (http://www.inkscape.org/) -->

<svg
        xmlns:osb="http://www.openswatchbook.org/uri/2009/osb"
        xmlns:dc="http://purl.org/dc/elements/1.1/"
        xmlns:cc="http://creativecommons.org/ns#"
        xmlns:rdf="http://www.w3.org/1999/02/22-rdf-syntax-ns#"
        xmlns="http://www.w3.org/2000/svg"
        xmlns:sodipodi="http://sodipodi.sourceforge.net/DTD/sodipodi-0.dtd"
        xmlns:inkscape="http://www.inkscape.org/namespaces/inkscape"
        width="256"
        height="256"
        viewBox="0 0 67.733332 67.733335"
        version="1.1"
        id="svg8"
        inkscape:version="0.92.4 (5da689c313, 2019-01-14)"
        sodipodi:docname="maxorglogo.svg"
        inkscape:export-filename="C:\Users\alan5\Documents\CETI\Titulacion\MaxOrg\MaxOrg\wwwroot\images\logos\maxorg-logo.png"
        inkscape:export-xdpi="192"
        inkscape:export-ydpi="192">
  <defs
     id="defs2">
    <linearGradient
       id="linearGradient6118"
       osb:paint="solid">
      <stop
         style="stop-color:#fffff3;stop-opacity:1;"
         offset="0"
         id="stop6116" />
    </linearGradient>
  </defs>
  <sodipodi:namedview
     id="base"
     pagecolor="#ffffff"
     bordercolor="#666666"
     borderopacity="1.0"
     inkscape:pageopacity="0"
     inkscape:pageshadow="2"
     inkscape:zoom="1.4"
     inkscape:cx="-102.0357"
     inkscape:cy="201.69697"
     inkscape:document-units="mm"
     inkscape:current-layer="layer1"
     showgrid="false"
     units="px"
     inkscape:window-width="1920"
     inkscape:window-height="1017"
     inkscape:window-x="-8"
     inkscape:window-y="-8"
     inkscape:window-maximized="1"
     inkscape:pagecheckerboard="true" />
  <metadata
     id="metadata5">
    <rdf:RDF>
      <cc:Work
         rdf:about="">
        <dc:format>image/svg+xml</dc:format>
        <dc:type
           rdf:resource="http://purl.org/dc/dcmitype/StillImage" />
        <dc:title></dc:title>
      </cc:Work>
    </rdf:RDF>
  </metadata>
  <g
     inkscape:label="Capa 1"
     inkscape:groupmode="layer"
     id="layer1"
     transform="translate(0,-229.26665)">
    <path
       style="fill:#000000;fill-opacity:1;stroke:#000000;stroke-width:1.79674423;stroke-linecap:round;stroke-linejoin:round;stroke-miterlimit:4;stroke-dasharray:none;stroke-opacity:1;paint-order:markers stroke fill"
       d="M 128.5918 1.1425781 A 127.69386 126.97958 0 0 0 0.8984375 128.12305 A 127.69386 126.97958 0 0 0 128.5918 255.10156 A 127.69386 126.97958 0 0 0 256.28516 128.12305 A 127.69386 126.97958 0 0 0 128.5918 1.1425781 z M 89.867188 53.333984 C 92.035241 53.333984 94.087675 54.761263 96.023438 57.617188 C 97.9592 60.397956 99.584072 63.667985 100.90039 67.425781 C 102.29414 71.108421 102.99219 73.475161 102.99219 74.527344 C 102.99219 78.360295 101.98585 82.907055 99.972656 88.167969 C 97.959464 93.353727 95.208981 99.404015 91.724609 106.31836 L 78.949219 132.24805 C 82.975604 127.2126 86.808033 122.55342 90.447266 118.26953 C 94.086498 113.98564 97.688198 109.81428 101.25 105.75586 C 104.88923 101.69744 108.56654 97.600372 112.2832 93.466797 C 117.31618 87.830103 122.96837 82.456305 129.24023 77.345703 C 135.5121 72.159945 141.35916 67.952408 146.7793 64.720703 C 152.27686 61.413843 155.99197 59.759766 157.92773 59.759766 C 160.6378 59.759766 163.03828 61.225169 165.12891 64.15625 C 167.29696 67.012175 168.38086 70.09353 168.38086 73.400391 C 168.38086 75.579912 166.91111 79.751277 163.96875 85.914062 C 161.02639 92.076848 156.7286 99.967933 151.07617 109.58789 C 145.42375 119.20785 137.95181 131.60952 128.66016 146.79102 C 137.48723 137.69715 146.6616 128.33871 156.18555 118.71875 C 165.7095 109.09879 172.79558 102.07287 177.44141 97.638672 C 182.08724 93.204473 185.95747 89.822021 189.05469 87.492188 C 193.31336 84.335639 197.57335 80.953187 201.83203 77.345703 L 212.05273 68.666016 C 214.53051 66.56165 216.73611 64.945698 218.67188 63.818359 C 220.60764 62.691021 222.38958 62.126953 224.01562 62.126953 C 226.02882 62.126953 228.54466 64.38127 231.56445 68.890625 C 234.66167 73.39998 236.21094 76.294615 236.21094 77.572266 C 236.21094 79.15054 235.28216 81.029463 233.42383 83.208984 C 231.64293 85.388506 227.88611 89.445495 222.15625 95.382812 C 211.6257 106.35558 202.48914 117.44239 194.74609 128.64062 C 187.00305 139.7637 181.11818 149.94723 177.0918 159.19141 C 173.14284 168.36043 171.16992 175.61315 171.16992 180.94922 C 171.16992 184.25608 171.78846 186.66094 173.02734 188.16406 C 174.34366 189.66718 176.35634 190.41797 179.06641 190.41797 C 181.54418 190.41797 183.8293 189.96828 185.91992 189.06641 C 188.08798 188.16454 190.4487 186.88585 193.00391 185.23242 C 195.63654 183.57899 198.11459 182.00117 200.4375 180.49805 C 203.68958 178.61915 206.86372 176.6278 209.96094 174.52344 C 213.13559 172.34392 215.57583 170.65171 217.2793 169.44922 C 219.0602 168.17157 220.37678 167.27023 221.22852 166.74414 L 221.22852 174.52344 C 213.87262 181.21231 207.59995 186.62228 202.41211 190.75586 C 197.3017 194.81428 192.19049 198.49783 187.08008 201.80469 C 181.96967 205.03639 177.71163 207.32883 174.30469 208.68164 C 170.97518 210.1096 168.11128 210.82227 165.71094 210.82227 C 159.98108 210.82227 155.29548 208.75662 151.65625 204.62305 C 148.01702 200.48947 146.19727 195.1538 146.19727 188.61523 C 146.19727 181.09964 147.74653 173.65825 150.84375 166.29297 C 154.0184 158.92769 158.50912 151.3377 164.31641 143.52148 C 170.12369 135.63011 177.4027 126.79957 186.15234 117.0293 C 192.6565 109.81433 195.9082 105.75539 195.9082 104.85352 C 195.9082 104.32742 195.71528 103.87578 195.32812 103.5 C 194.94097 103.12422 194.51341 102.9375 194.04883 102.9375 C 192.57765 102.9375 188.04912 106.09315 180.46094 112.40625 C 172.87275 118.71935 163.1157 128.00154 151.19141 140.25195 C 139.34454 152.50237 126.53067 167.08211 112.74805 183.99219 C 111.97374 184.89406 109.4957 187.97541 105.31445 193.23633 C 101.21064 198.42209 98.306986 201.80454 96.603516 203.38281 C 94.900045 204.96109 93.428341 205.75 92.189453 205.75 C 90.0214 205.75 88.124087 203.64623 86.498047 199.4375 C 84.949437 195.15361 84.175781 190.60685 84.175781 185.79688 C 84.175781 182.86579 85.144316 179.70819 87.080078 176.32617 C 89.093271 172.94416 93.391065 166.89387 99.972656 158.17578 C 106.63168 149.38254 112.12874 141.98122 116.46484 135.96875 C 120.80095 129.95628 125.56216 122.66543 130.75 114.09766 C 134.38923 108.16034 137.0602 103.42491 138.76367 99.892578 C 140.54457 96.36025 141.43555 93.240769 141.43555 90.535156 C 141.43555 88.205323 140.73945 87.041016 139.3457 87.041016 C 136.40334 87.041016 130.86653 90.875112 122.73633 98.541016 C 114.60613 106.13176 104.54079 117.44147 92.539062 132.47266 C 80.614768 147.50384 68.146993 164.90196 55.138672 184.66797 C 50.879995 191.432 47.860979 195.98071 46.080078 198.31055 C 44.299177 200.64038 42.324303 201.80469 40.15625 201.80469 C 37.446183 201.80469 34.890579 199.02443 32.490234 193.46289 C 30.16732 187.8262 29.005859 183.27944 29.005859 179.82227 C 29.005859 178.69493 29.471225 177.45437 30.400391 176.10156 C 40.621214 162.87412 49.021925 151.63871 55.603516 142.39453 C 62.185107 133.15035 68.032166 124.3941 73.142578 116.12695 C 78.25299 107.78465 81.970054 100.94545 84.292969 95.609375 C 86.615883 90.198149 87.777344 85.952486 87.777344 82.871094 C 87.777344 79.639389 86.265883 78.023438 83.246094 78.023438 C 80.768318 78.023438 76.548085 79.563139 70.585938 82.644531 C 64.62379 85.725924 57.074297 89.935414 47.9375 95.271484 C 38.878134 100.60755 31.60108 104.70267 26.103516 107.55859 C 20.605951 110.33936 16.501082 111.73047 13.791016 111.73047 C 11.23581 111.73047 9.9589844 110.33936 9.9589844 107.55859 C 9.9589844 105.98032 10.499958 102.37302 11.583984 96.736328 C 12.668011 91.024479 13.791668 87.003662 14.953125 84.673828 C 16.579165 81.667591 20.721838 77.6849 27.380859 72.724609 C 34.117311 67.764319 37.834376 65.283203 38.53125 65.283203 C 39.150694 65.283203 39.458984 65.546174 39.458984 66.072266 C 39.458984 66.372889 39.150694 66.824534 38.53125 67.425781 C 35.3566 69.905926 32.993922 71.935398 31.445312 73.513672 C 29.896703 75.091946 28.930121 76.820321 28.542969 78.699219 C 42.712747 70.432068 55.371495 64.156934 66.521484 59.873047 C 77.748904 55.514004 85.531081 53.333984 89.867188 53.333984 z "
       transform="matrix(0.26458333,0,0,0.26458333,0,229.26665)"
       id="path4528" />
  </g>
</svg>
